<svg width="1425" height="436" viewBox="0 0 1425 436" fill="none" xmlns="http://www.w3.org/2000/svg">
<path d="M1627.4 348.074C1512.35 190.57 1063.98 401.861 718.632 390.687C373.285 379.513 591.591 264.357 775.524 171.879C959.456 79.4021 792.844 41.5552 422.451 93.6492L122.457 218.14" stroke="#7D35FF" stroke-opacity="0.52"/>
<path d="M1627.4 333.074C1512.35 175.57 1063.98 386.861 718.632 375.687C373.285 364.513 591.591 249.357 775.524 156.879C959.456 64.4021 792.844 26.5552 422.451 78.6492L122.457 203.14" stroke="#7D35FF" stroke-opacity="0.52"/>
<path d="M1627.4 316.074C1512.35 158.57 1063.98 369.861 718.632 358.687C373.285 347.513 591.591 232.357 775.524 139.879C959.456 47.4021 792.844 9.55522 422.451 61.6492L122.457 186.14" stroke="#7D35FF" stroke-opacity="0.52"/>
<path d="M1627.4 299.074C1512.35 141.57 1063.98 352.861 718.632 341.687C373.285 330.513 591.591 215.357 775.524 122.879C959.456 30.4021 792.844 -7.44478 422.451 44.6492L122.457 169.14" stroke="#7D35FF" stroke-opacity="0.52"/>
<path d="M1627.4 378.074C1512.35 220.57 1063.98 431.861 718.632 420.687C373.285 409.513 591.591 294.357 775.524 201.879C959.456 109.402 792.845 71.5552 422.451 123.649L138.319 212.5" stroke="#7D35FF" stroke-opacity="0.52"/>
<path d="M1627.4 364.074C1512.35 206.57 1063.98 417.861 718.632 406.687C373.285 395.513 591.591 280.357 775.524 187.879C959.456 95.4021 792.845 57.5552 422.451 109.649L119.823 217" stroke="#7D35FF" stroke-opacity="0.52"/>
</svg>
