<svg fill="none" viewBox="0 0 92 59" height="59" width="92" xmlns="http://www.w3.org/2000/svg">
                                        <path fill="#333333" d="M8.0743 0.817367C7.44267 1.05585 6.78389 1.66201 6.45243 2.30937C6.10767 2.98326 6.09707 3.40952 6.09707 16.6367V30.2694L6.53835 30.7091C7.14375 31.3127 8.04626 31.3031 8.62721 30.6867L9.06292 30.2244L9.11235 16.8901L9.1616 3.55573H36.8386H64.5154V16.9125V30.2694L64.9567 30.7091C65.5403 31.291 66.4651 31.3025 67.0006 30.7343C67.3153 30.4002 67.3914 30.1027 67.3914 29.2051V28.0904L76.5136 28.1415L85.6358 28.1925L86.6245 28.7451C87.5167 29.2438 88.7814 30.6652 88.7814 31.1692C88.7814 31.2566 87.694 31.3281 86.3649 31.3281C84.069 31.3281 83.923 31.3498 83.444 31.7608C82.9418 32.1916 82.9396 32.2029 82.9419 34.4037C82.9445 36.805 83.1075 37.5169 83.9065 38.6154C84.6711 39.667 85.9533 40.2743 87.6909 40.4077L89.1409 40.5192V43.5387V46.5582H87.2746H85.4085L84.9206 45.5641C83.9581 43.6034 81.8638 41.7668 79.6896 40.9772C78.1801 40.4289 75.2965 40.4289 73.787 40.9772C71.6128 41.7668 69.5185 43.6034 68.5559 45.5641C68.2214 46.2459 67.9619 46.5582 67.7298 46.5582C67.4054 46.5582 67.3914 46.3199 67.3914 40.8376V35.1168L66.9177 34.7456C66.2767 34.2428 65.5024 34.2699 64.9567 34.814L64.5154 35.2537V40.906V46.5582H49.6018H34.6882L34.1884 45.5388C33.2226 43.5693 31.2678 41.8501 29.0691 41.0363C24.9229 39.5016 19.9924 41.4271 17.9407 45.382L17.3314 46.5569L13.2421 46.5574L9.1528 46.5582V45.0352V43.5122H12.3103C15.4932 43.5122 15.9971 43.4272 16.4718 42.811C16.8024 42.3819 16.745 41.4545 16.3586 40.9788L16.0151 40.5557H8.34393H0.672794L0.329295 40.9788C-0.057165 41.4545 -0.114505 42.3819 0.216053 42.811C0.670997 43.4016 1.21348 43.5122 3.6586 43.5122H6.09707V45.3654C6.09707 47.6571 6.46789 48.5381 7.70762 49.1915C8.46004 49.5882 8.65292 49.6042 12.6861 49.6042H16.882V50.1937C16.882 50.5178 17.004 51.2499 17.153 51.8204C18.2251 55.9228 21.8484 58.7422 26.0492 58.7422C30.4961 58.7422 34.3762 55.4048 35.0652 50.9869L35.2809 49.6042H51.3855H67.49L67.7088 50.9928C68.4096 55.4425 72.2543 58.7422 76.7383 58.7422C81.2182 58.7422 85.1437 55.3706 85.7786 50.9776L85.9734 49.6289L88.652 49.5717C91.2307 49.5167 91.3436 49.4985 91.6801 49.0838C92.0173 48.6682 92.0277 48.342 91.9783 39.7666L91.927 30.8802L91.363 29.6935C90.3782 27.6215 88.8652 26.2719 86.7524 25.5805L85.581 25.1972L84.4779 20.782C83.8713 18.3538 83.3381 16.2447 83.2932 16.0952C83.2454 15.9359 83.3764 15.7507 83.6097 15.6473C84.3264 15.3298 84.5622 14.3013 84.3332 12.4927C84.0154 9.98352 82.8922 8.36107 80.7316 7.29049C79.8988 6.87784 79.7737 6.8696 73.6376 6.81513L67.3914 6.75977V4.73632C67.3914 2.51847 67.1933 1.97933 66.0751 1.15332L65.5676 0.778485L36.9558 0.746949C21.2193 0.729569 8.2226 0.761284 8.0743 0.817367ZM79.7831 10.1797C80.536 10.5626 81.1657 11.4223 81.344 12.3112L81.4567 12.8729H74.424H67.3914V11.3499V9.82691H73.2404C78.7038 9.82691 79.1351 9.85021 79.7831 10.1797ZM41.8291 21.0656L35.219 27.6459L31.6573 24.1116C28.6131 21.0909 28.0174 20.5775 27.5558 20.5775C26.6386 20.5775 25.848 21.6347 26.122 22.4951C26.18 22.6769 28.1123 24.6984 30.416 26.9874C34.2621 30.8083 34.6555 31.149 35.2259 31.149C35.8043 31.149 36.3511 30.6465 43.1711 23.8466C50.1574 16.8809 50.495 16.5141 50.495 15.8863C50.495 15.0917 49.8452 14.4855 48.9935 14.4855C48.5043 14.4855 47.6625 15.2585 41.8291 21.0656ZM81.3505 20.4879C81.9717 22.9516 82.4823 25.0286 82.4852 25.1037C82.4879 25.1788 79.1131 25.2191 74.9857 25.1933L67.4812 25.1465L67.4332 20.5304L67.3852 15.9144L73.8032 15.9614L80.2211 16.0085L81.3505 20.4879ZM89.1409 35.8076V37.4201H88.0486C87.081 37.4201 86.8962 37.3603 86.4309 36.8964C85.9655 36.4325 85.9055 36.2483 85.9055 35.2838V34.195H87.5232H89.1409V35.8076ZM3.48263 34.814C2.9112 35.3834 2.90833 36.1709 3.47508 36.8278L3.90899 37.3306H13.7364H23.5638L23.9977 36.8278C24.5644 36.1709 24.5616 35.3834 23.9901 34.814L23.549 34.3741H13.7364H3.92373L3.48263 34.814ZM37.643 40.6826C36.6856 41.2298 36.5666 42.1981 37.3595 42.9884L37.8849 43.5122H48.9651C60.3452 43.5122 60.517 43.5021 61.0495 42.811C61.2873 42.5021 61.3462 41.743 61.1683 41.2805C60.8595 40.4783 60.6713 40.4658 49.021 40.4715C41.0717 40.4755 37.9023 40.5342 37.643 40.6826ZM28.8865 44.2228C30.1636 44.9013 30.8603 45.6126 31.5759 46.9679C32.0129 47.7957 32.0691 48.0957 32.0698 49.6042C32.0706 51.1024 32.0111 51.4275 31.5728 52.3173C30.0604 55.3871 26.287 56.6465 23.2366 55.0993C19.6077 53.2585 18.7454 48.508 21.4907 45.479C22.7939 44.0411 24.1882 43.4894 26.3188 43.5688C27.5463 43.6146 27.9221 43.7103 28.8865 44.2228ZM79.4904 44.1149C80.7656 44.7368 81.994 46.086 82.4978 47.4179C83.0412 48.8547 82.9373 51.094 82.2675 52.3814C80.259 56.2423 75.0823 56.9332 72.1899 53.7265C69.685 50.9492 70.1902 46.6743 73.2733 44.5598C74.4697 43.7392 75.3503 43.507 77.0273 43.5699C78.1765 43.6129 78.6975 43.7282 79.4904 44.1149ZM24.8808 46.8968C23.1263 47.704 22.5282 49.3875 23.4074 51.0448C23.8828 51.9412 25.025 52.6502 25.9933 52.6502C27.3191 52.6502 28.5308 51.7038 28.9375 50.3504C29.3666 48.9229 28.3492 47.1718 26.8496 46.7569C25.9059 46.4956 25.7249 46.5085 24.8808 46.8968ZM75.7497 46.8273C74.3872 47.3075 73.4989 48.8407 73.7647 50.253C73.9374 51.1711 75.1572 52.3943 76.07 52.5651C77.1864 52.7738 77.999 52.5156 78.8291 51.6884C79.6989 50.8211 79.9529 49.9435 79.6376 48.8945C79.3552 47.9548 78.7813 47.2876 77.9209 46.8979C77.048 46.5028 76.7023 46.4915 75.7497 46.8273Z" clip-rule="evenodd" fill-rule="evenodd"></path>
                                    </svg>