<svg fill="none" viewBox="0 0 58 59" height="59" width="58" xmlns="http://www.w3.org/2000/svg">
                                        <path fill="#333333" d="M26.145 0.804872C25.9669 0.83065 25.2965 0.917055 24.6553 0.996982C23.267 1.17005 20.9353 1.72941 19.4089 2.2556C12.9367 4.48643 7.442 9.13709 3.8063 15.461C1.89738 18.7816 0.518281 23.1691 0.0945519 27.2704C-0.0926352 29.0835 0.00996144 32.686 0.297932 34.4036C1.09202 39.1403 3.16053 43.8284 6.03389 47.4042C6.50943 47.9961 6.66644 48.2695 6.50412 48.2232C6.37017 48.185 5.95525 48.115 5.58231 48.0677C4.94755 47.9871 4.87916 48.0066 4.51359 48.3721C4.04206 48.8437 4.01343 49.2885 4.42395 49.7657C4.70104 50.0878 4.88848 50.1395 6.78807 50.4171C9.37851 50.7955 9.59718 50.7966 10.0144 50.4343C10.3312 50.1593 10.3607 50.0261 10.5393 48.0702C10.6434 46.9302 10.7288 45.8929 10.7291 45.765C10.73 45.362 10.1432 44.8964 9.63435 44.8964C8.87978 44.8964 8.615 45.3036 8.49685 46.6452C8.46408 47.0173 8.42703 46.9872 7.62647 45.9378C5.69954 43.4123 3.94594 39.9955 3.07879 37.0765C1.81201 32.8124 1.72198 27.9861 2.82748 23.6087C5.37595 13.5179 13.9209 5.25228 23.8753 3.24893C30.2762 1.96064 36.5956 3.09179 42.6548 6.61026C44.2732 7.55008 44.5386 7.59814 45.0544 7.04435C45.3351 6.74304 45.3973 6.16697 45.1908 5.78094C45.1213 5.65114 44.5102 5.2142 43.8327 4.8099C40.3159 2.71133 36.1114 1.30076 32.0392 0.853191C30.9515 0.733624 26.8699 0.700202 26.145 0.804872ZM47.8969 8.60779C47.6306 8.82334 47.5665 9.0946 47.3069 11.1015C47.1468 12.3399 47.0468 13.48 47.0848 13.635C47.2768 14.418 48.3566 14.647 48.8964 14.0195C49.0695 13.8182 49.2089 13.4822 49.2163 13.2487C49.2234 13.0211 49.2671 12.7049 49.3135 12.546C49.39 12.2829 49.4557 12.3296 50.0425 13.0641C52.8796 16.6152 54.7187 20.7687 55.5046 25.4005C55.8525 27.4502 55.8184 31.526 55.4353 33.6911C54.2368 40.464 50.9143 46.288 45.8222 50.5412C39.2988 55.9899 30.0773 57.8809 21.6759 55.4924C19.5739 54.8948 17.3946 53.9747 15.4662 52.8703C14.5262 52.3321 13.6544 51.8916 13.5288 51.8916C13.1921 51.8916 12.5432 52.5984 12.5432 52.9653C12.5432 53.6377 13.3657 54.2467 16.1662 55.6482C19.2104 57.1715 22.4174 58.1594 25.6572 58.5717C27.9187 58.8595 31.5339 58.7738 33.5937 58.3833C39.6305 57.2391 44.7812 54.5123 49.146 50.1496C58.0909 41.2086 60.5031 28.2865 55.2428 17.4871C54.117 15.1758 52.676 12.9079 51.1053 10.9754C50.9865 10.8293 51.1249 10.815 51.9312 10.8907C52.869 10.9785 52.9112 10.9701 53.2539 10.6275C53.6902 10.1913 53.7132 9.66692 53.3163 9.21249C53.0498 8.90755 52.8523 8.85689 51.0169 8.62242C48.5393 8.30609 48.2711 8.30479 47.8969 8.60779ZM20.0566 14.3195L11.5716 18.5759L9.40183 20.7731C7.39718 22.803 7.23201 23.0062 7.23201 23.4405C7.23201 23.739 7.32723 24.006 7.49265 24.1714C7.8415 24.5202 24.522 32.8491 24.8719 32.8491C25.0456 32.8491 25.6383 32.365 26.4877 31.5291L27.8291 30.209V38.33C27.8291 42.7966 27.7997 46.4509 27.7638 46.4509C27.7279 46.4509 24.4926 44.8477 20.5742 42.8883L13.45 39.3256V34.5472C13.45 29.1906 13.467 29.2893 12.5203 29.1379C12.1235 29.0743 11.9885 29.1173 11.7106 29.395L11.3773 29.7283V35.0876V40.4468L11.6688 40.7155C12.1077 41.12 28.5557 49.3008 28.9302 49.3008C29.1087 49.3008 33.0931 47.3815 37.7844 45.0357C45.246 41.3045 46.3332 40.724 46.4677 40.3995C46.5796 40.1293 46.6114 38.6287 46.5846 34.873L46.5478 29.7174L46.1843 29.405C45.6981 28.9868 45.2521 29.0079 44.789 29.471L44.4103 29.8497V34.6208V39.392L37.2208 42.9861L30.0313 46.5802V38.3893V30.1984L31.2943 31.4512C31.989 32.1404 32.7081 32.7407 32.8926 32.7854C33.1615 32.8505 34.916 32.023 41.7703 28.5978C46.4688 26.25 50.3782 24.2495 50.458 24.1523C50.6067 23.9711 50.6696 23.6499 50.6432 23.2067C50.6349 23.068 49.6307 21.9496 48.3937 20.7018L46.1591 18.4475L37.7672 14.2487C31.7932 11.2596 29.2553 10.0518 28.9584 10.0566C28.6785 10.061 25.7538 11.4616 20.0566 14.3195ZM36.088 15.7897L43.1164 19.3132L36.022 22.8585L28.9278 26.4038L21.8695 22.874L14.8111 19.3444L21.8707 15.8054C25.7534 13.8589 28.9593 12.2662 28.9949 12.2662C29.0306 12.2662 32.2225 13.8517 36.088 15.7897ZM19.8304 24.2488C23.7665 26.2161 27.0136 27.8505 27.046 27.8811C27.0784 27.9115 26.5392 28.5022 25.8479 29.1937L24.5907 30.4508L17.3373 26.8259L10.0837 23.201L11.3434 21.9367C12.0363 21.2412 12.619 20.6722 12.6384 20.6722C12.6578 20.6722 15.8942 22.2818 19.8304 24.2488ZM46.5777 21.8679C47.2381 22.5256 47.7784 23.0944 47.7784 23.1318C47.7784 23.1694 44.514 24.8315 40.5241 26.8254L33.2697 30.4508L32.0125 29.1937C31.3211 28.5022 30.782 27.9115 30.8143 27.8811C30.9361 27.7663 45.1283 20.6861 45.2499 20.6793C45.3198 20.6755 45.9173 21.2103 46.5777 21.8679Z" clip-rule="evenodd" fill-rule="evenodd"></path>
                                    </svg>