<svg fill="none" viewBox="0 0 53 59" height="59" width="53" xmlns="http://www.w3.org/2000/svg">
                                        <path fill="#333333" d="M23.4859 0.870649C17.3635 1.90022 12.3579 5.92161 10.2175 11.5303C9.20364 14.1867 9.07658 15.227 9.07409 20.8908C9.07183 26.1151 9.07703 26.1531 9.93553 27.1105C10.2124 27.4193 10.6402 27.761 10.8861 27.8697L11.3331 28.0675L11.3342 29.0941C11.3351 29.9548 11.3819 30.2217 11.6236 30.7443C12.0068 31.5727 12.4899 32.0631 13.3114 32.4583C13.8722 32.7279 14.1367 32.7845 14.8376 32.785L15.6855 32.7854L16.0536 33.4935C16.3764 34.1145 16.9497 34.9347 17.7984 35.9896L18.0514 36.3042L17.108 38.2066L16.1646 40.1088L13.1597 41.1108C11.318 41.7249 9.68886 42.3465 8.9512 42.7168C5.88053 44.2581 3.47754 46.7325 1.80937 50.0708C0.769877 52.1508 0.18292 54.3493 0.0681746 56.5918L-0.0045166 58.012L0.359618 58.3771L0.723752 58.7422H26.0296H51.3354L51.6995 58.3771L52.0637 58.012L51.991 56.5918C51.7362 51.6109 49.1549 46.8841 45.0342 43.8526C43.7813 42.9309 42.087 42.1737 38.9007 41.1112L35.897 40.1098L34.9766 38.26C34.4703 37.2425 34.0561 36.355 34.0561 36.2874C34.0561 36.22 34.3017 35.8885 34.6019 35.5509C35.309 34.7555 36.2221 33.2134 36.6711 32.0567C36.8667 31.5531 37.1562 30.4906 37.3146 29.6958L37.6025 28.2506L38.9665 28.2504C40.2365 28.2503 40.3771 28.2279 41.0087 27.9242C41.8405 27.5242 42.3181 27.0344 42.7057 26.1839L43.0018 25.5343L42.9572 20.4597C42.9156 15.7216 42.896 15.3108 42.6615 14.2631C41.6401 9.70007 39.1199 6.01988 35.2659 3.46323C33.5102 2.29865 31.6171 1.50814 29.4662 1.04158C28.0395 0.732133 24.8515 0.640998 23.4859 0.870649ZM27.2731 3.08974C30.8221 3.40281 33.9613 4.88727 36.4938 7.44993C38.6687 9.65054 40.226 12.8722 40.5626 15.8669L40.6422 16.5753H39.5536H38.4651V16.0777C38.4651 15.3954 38.1775 13.9332 37.8582 12.9923C37.3262 11.4244 36.5015 10.0772 35.3075 8.82613C33.6965 7.13821 32.0492 6.17075 29.6472 5.5022C29.0273 5.32968 28.4614 5.2976 26.0296 5.2976C22.983 5.2976 22.6945 5.33456 21.0554 5.93419C18.4719 6.8792 16.0596 9.05284 14.7804 11.5878C14.1446 12.8481 13.5941 14.9315 13.5941 16.0777V16.5753H12.5055H11.4169L11.4952 15.8669C11.8329 12.8123 13.4106 9.59545 15.6785 7.33714C17.6935 5.33059 19.7799 4.15819 22.6377 3.42662C23.4143 3.2278 24.0351 3.14211 25.8035 2.98965C25.8967 2.9816 26.5581 3.0266 27.2731 3.08974ZM29.2515 7.83691C29.7489 7.96489 30.6392 8.31072 31.2299 8.60521C32.1498 9.06383 32.4668 9.30402 33.4394 10.2792C34.412 11.2545 34.6516 11.5723 35.109 12.4946C35.7504 13.788 36.0535 14.9332 36.1583 16.459L36.2364 17.5955H35.9009C35.2045 17.5955 32.9855 17.1224 31.706 16.7011C29.3631 15.9297 27.2646 14.7136 25.2382 12.9529L24.1642 12.0198L23.0903 12.0803C20.7551 12.2118 18.5943 13.1478 16.8014 14.8042L15.9515 15.5895L16.0315 15.1472C16.7478 11.1916 19.887 8.18513 23.8885 7.62245C25.1374 7.44687 28.2145 7.56997 29.2515 7.83691ZM25.0121 15.7624C27.6621 17.8153 30.7191 19.1187 34.2822 19.715C35.246 19.8763 36.0485 20.0194 36.0657 20.0329C36.1901 20.1305 35.6741 25.2185 35.2842 27.7405C34.7664 31.0894 34.078 32.7316 32.4897 34.4062C30.8713 36.1126 29.295 36.9345 27.1132 37.21C24.7586 37.5071 22.4348 36.8696 20.6511 35.4374C19.9524 34.8763 18.9496 33.7851 18.5518 33.153L18.32 32.7846H19.4398H20.5596L20.7569 33.2328C21.0238 33.8395 21.9516 34.653 22.6367 34.8812C23.0848 35.0305 23.565 35.0597 25.0922 35.0308C26.8337 34.9979 27.0344 34.9725 27.5209 34.7232C28.6635 34.1375 29.3374 33.0914 29.4034 31.8008C29.4388 31.1065 29.4008 30.8903 29.1443 30.3273C28.7522 29.4668 28.2771 28.9782 27.4427 28.5769C26.7851 28.2606 26.7107 28.2508 25.0044 28.2507C23.7637 28.2506 23.0748 28.3011 22.6696 28.4217C21.9673 28.6308 21.0368 29.4333 20.7556 30.0722L20.5572 30.5234L18.9152 30.4922L17.2732 30.4609L17.1329 29.8375C16.7575 28.1706 16.2187 23.7399 16.0191 20.6793L15.943 19.5125L16.92 18.2213C17.4572 17.5111 18.1585 16.6943 18.4782 16.4061C19.6115 15.3844 21.1963 14.6314 22.6234 14.4365C23.2351 14.3529 23.2775 14.3643 23.712 14.7276C23.9608 14.9355 24.5458 15.4011 25.0121 15.7624ZM13.5941 19.0426C13.5941 19.9628 13.9174 24.0037 14.1109 25.5018L14.1732 25.9835H13.3147C12.8168 25.9835 12.2899 25.9138 12.0602 25.8176C11.3818 25.5334 11.3331 25.2674 11.3331 21.8498V18.8424H12.4636C13.469 18.8424 13.5941 18.8645 13.5941 19.0426ZM40.7261 21.8498C40.7261 25.2674 40.6774 25.5334 39.999 25.8176C39.7692 25.9138 39.2423 25.9835 38.7444 25.9835H37.8859L37.9482 25.5018C38.1515 23.9284 38.4627 20.0349 38.4646 19.0407C38.4651 18.865 38.5944 18.8424 39.5956 18.8424H40.7261V21.8498ZM14.6665 29.3345C14.7735 29.9308 14.8358 30.4438 14.8051 30.4746C14.7742 30.5056 14.5636 30.4532 14.337 30.3583C13.838 30.1492 13.5941 29.6446 13.5941 28.8209V28.2506H14.0329H14.4718L14.6665 29.3345ZM26.4329 30.6835C26.9933 30.9183 27.2294 31.4921 26.996 32.0519C26.7581 32.6231 26.2958 32.7846 24.8991 32.7846C23.5023 32.7846 23.0401 32.6231 22.8021 32.0519C22.6548 31.6985 22.6548 31.6037 22.8019 31.2506C22.9105 30.9899 23.0984 30.7938 23.3405 30.6884C23.8541 30.4645 25.9026 30.4614 26.4329 30.6835ZM33.3315 42.4368C32.8593 43.6785 32.0104 45.632 31.5461 46.545L31.3217 46.9865L29.4204 45.0826L27.5191 43.1788L29.9095 40.6428L32.2997 38.1068L33.0602 39.6287L33.8205 41.1506L33.3315 42.4368ZM21.9515 40.881L24.2588 43.1964L23.8811 43.6298C23.6734 43.8682 22.8808 44.7203 22.1198 45.5237L20.7365 46.9842L20.5125 46.5438C20.049 45.6324 19.1996 43.6782 18.7282 42.4383L18.2397 41.1537L18.8822 39.8596C19.2356 39.1479 19.5516 38.5656 19.5845 38.5656C19.6174 38.5656 20.6825 39.6075 21.9515 40.881ZM27.4946 39.8124C27.3821 39.9683 26.9672 40.4144 26.5724 40.8039L25.8546 41.512L24.8685 40.5187L23.8825 39.5255L25.7908 39.5272L27.699 39.5291L27.4946 39.8124ZM16.6986 43.6381C17.9837 46.9398 19.8048 50.316 21.9162 53.3108C22.6569 54.3614 23.8816 56.2878 23.8816 56.4024C23.8816 56.4424 19.0487 56.4752 13.1419 56.4752H2.40209V56.2042C2.40209 55.7333 2.74667 54.0892 3.04162 53.1531C3.72094 50.997 4.97037 48.9247 6.57071 47.3001C8.40246 45.4406 9.60328 44.7724 13.4933 43.4485C14.9477 42.9535 16.1671 42.545 16.2031 42.5407C16.2391 42.5364 16.462 43.0302 16.6986 43.6381ZM38.5194 43.4413C42.4478 44.7664 43.6462 45.4298 45.4884 47.3001C47.0888 48.9247 48.3382 50.997 49.0175 53.1531C49.3125 54.0892 49.6571 55.7333 49.6571 56.2042V56.4752H38.9173C33.0104 56.4752 28.1775 56.4424 28.1775 56.4024C28.1775 56.2878 29.4022 54.3614 30.1429 53.3108C32.2526 50.3183 34.2563 46.5951 35.4095 43.5247C35.6143 42.9793 35.7918 42.5329 35.804 42.5329C35.8161 42.5329 37.0381 42.9416 38.5194 43.4413ZM28.0534 46.9992L30.1315 49.0851L29.8663 49.5212C29.7203 49.7611 28.9347 50.9521 28.1205 52.1678C27.3062 53.3835 26.5187 54.595 26.3705 54.8599C26.2223 55.1248 26.0688 55.3416 26.0296 55.3416C25.9903 55.3416 25.8436 55.1371 25.7034 54.8873C25.5634 54.6374 24.662 53.2527 23.7004 51.8102C22.7387 50.3678 21.9664 49.1492 21.9841 49.1024C22.0293 48.9829 25.8472 44.9197 25.9177 44.9162C25.9494 44.9146 26.9105 45.8519 28.0534 46.9992ZM37.6824 45.9422C37.4146 46.2107 37.3346 46.3911 37.3346 46.7269C37.3346 47.3399 37.8537 47.8604 38.4651 47.8604C39.0765 47.8604 39.5956 47.3399 39.5956 46.7269C39.5956 46.3911 39.5156 46.2107 39.2477 45.9422C38.9799 45.6736 38.7999 45.5934 38.4651 45.5934C38.1302 45.5934 37.9503 45.6736 37.6824 45.9422ZM41.8322 47.9441C41.6633 48.049 41.4662 48.2775 41.3942 48.4518C41.15 49.043 41.3376 49.4144 42.4065 50.4557C43.0429 51.0756 43.5837 51.7317 43.8907 52.2564C44.4551 53.2207 44.7983 53.528 45.3112 53.528C45.7806 53.528 46.3353 53.0766 46.4372 52.6121C46.5856 51.9341 45.2752 49.8817 43.8844 48.6141C42.8825 47.7009 42.4501 47.5598 41.8322 47.9441Z" clip-rule="evenodd" fill-rule="evenodd"></path>
                                    </svg>